<svg width="664" height="172" viewBox="0 0 664 172" fill="none" xmlns="http://www.w3.org/2000/svg">
<path d="M35.9727 19.0197C45.4751 19.7277 54.7495 20.0958 63.796 20.1241H63.8087H64.6349C74.0877 20.1241 83.2871 19.744 92.233 18.9836C100.729 18.3153 108.092 16.8087 114.322 14.4639C114.543 12.0724 114.472 10.1297 114.109 8.63589C113.933 7.84195 113.622 7.08408 113.19 6.39516C113.164 6.35056 113.137 6.30808 113.109 6.2656L112.988 6.09144C112.958 6.04896 112.931 6.00436 112.899 5.96401C112.094 4.8794 110.951 4.00293 109.469 3.3346C108.598 2.85318 107.297 2.4284 105.567 2.06026H105.552L105.117 1.95831C104.692 1.87052 104.244 1.78698 103.772 1.70769L103.696 1.69919L103.311 1.6376L103.19 1.61636L102.836 1.56326L102.693 1.5399L102.336 1.4868L102.192 1.46556L101.793 1.41034L101.682 1.39547L101.153 1.32751H101.109L100.622 1.26804L100.44 1.2468L100.075 1.20432L99.8621 1.17883L99.5159 1.1406L99.2823 1.11724L98.934 1.08113L98.694 1.05565L98.3138 1.01954L98.1014 0.9983L97.5598 0.94945H97.4961C94.1219 0.683253 89.6808 0.470862 84.1728 0.312276L83.6545 0.299533C83.0981 0.282541 82.531 0.269798 81.9554 0.254931C80.32 0.208204 78.6017 0.169266 76.8007 0.138115C72.87 0.072982 68.5372 0.0269639 63.8023 6.10352e-05H63.7875C50.4776 0.0708581 40.3536 0.308028 33.4155 0.711572C32.2176 0.779537 31.1111 0.853874 30.1022 0.934583H30.0194L29.5054 0.989804L29.2802 1.01104L28.9234 1.04503L28.6686 1.07051L28.35 1.1045L28.0972 1.12998L27.7893 1.16397L27.5408 1.19158L27.2392 1.22768L27.0034 1.25529L26.6997 1.2914L26.4746 1.31901L26.156 1.36149L25.9669 1.38485L25.4784 1.45069L25.3595 1.46981L24.9942 1.52078L24.8137 1.54839L24.5248 1.593L24.3315 1.62273L24.0682 1.66733L23.8791 1.69707L23.6221 1.74167L23.4395 1.77353L23.1889 1.82025L23.0147 1.85211L22.762 1.91158L22.6069 1.94132L22.3244 1.99866L22.2119 2.02203L21.8338 2.10486C20.2055 2.46309 18.9743 2.87301 18.1403 3.3346C16.6961 3.98452 15.5732 4.83409 14.7718 5.8833L14.706 5.97888C14.6401 6.06596 14.5764 6.15304 14.5148 6.24436C14.4829 6.29109 14.4553 6.33994 14.4235 6.38879C14.3916 6.43764 14.3236 6.54808 14.2769 6.62879C14.2684 6.64105 14.2606 6.65382 14.2536 6.66702C13.9047 7.28439 13.6492 7.95002 13.4953 8.64226C13.1243 10.1233 13.0507 12.0568 13.2744 14.4427L13.404 14.4936C17.9874 16.5637 25.5103 18.0724 35.9727 19.0197Z" fill="white"/>
<path d="M127.605 70.5373V62.2859C127.542 56.8444 127.193 51.9984 126.558 47.7477C125.508 41.6068 123.677 37.2428 121.063 34.6559C118.976 32.2927 115.518 30.2042 110.69 28.3904L110.038 24.1914C99.6037 26.1624 84.1926 27.3157 63.8045 27.6513C62.5429 27.6321 61.3025 27.6067 60.0791 27.5812H59.9963C47.1112 27.298 36.3444 26.6608 27.6958 25.6696L26.1709 25.487C25.014 25.3454 23.8961 25.1981 22.8172 25.0452C20.9439 24.7776 19.1917 24.4895 17.5605 24.1808L16.9085 28.3798C12.0815 30.1936 8.62379 32.2821 6.53528 34.6453C3.92287 37.2421 2.09276 41.6096 1.04497 47.7477C0.410623 51.9955 0.0623014 56.8416 0 62.2859V70.5373L0.437526 94.9623L0.3908 114.228C0.358233 121.522 1.18656 127.6 2.87578 132.462C6.61245 141.939 13.106 148.636 22.3563 152.554C27.9379 155.829 41.7491 157.645 63.7896 158H63.8321C85.8712 157.646 99.6823 155.831 105.265 152.554C114.517 148.635 121.011 141.938 124.746 132.462C126.434 127.601 127.262 121.523 127.231 114.228L127.184 94.9623L127.605 70.5373Z" fill="white"/>
<mask id="mask0_19_100" style="mask-type:luminance" maskUnits="userSpaceOnUse" x="0" y="24" width="128" height="134">
<path d="M127.605 70.5373V62.2859C127.542 56.8444 127.193 51.9984 126.558 47.7477C125.508 41.6068 123.677 37.2428 121.063 34.6559C118.976 32.2927 115.518 30.2042 110.69 28.3904L110.038 24.1914C99.6037 26.1624 84.1926 27.3157 63.8045 27.6513C62.5429 27.6321 61.3025 27.6067 60.0791 27.5812H59.9963C47.1112 27.298 36.3444 26.6608 27.6958 25.6696L26.1709 25.487C25.014 25.3454 23.8961 25.1981 22.8172 25.0452C20.9439 24.7776 19.1917 24.4895 17.5605 24.1808L16.9085 28.3798C12.0815 30.1936 8.62379 32.2821 6.53528 34.6453C3.92287 37.2421 2.09276 41.6096 1.04497 47.7477C0.410623 51.9955 0.0623014 56.8416 0 62.2859V70.5373L0.437526 94.9623L0.3908 114.228C0.358233 121.522 1.18656 127.6 2.87578 132.462C6.61245 141.939 13.106 148.636 22.3563 152.554C27.9379 155.829 41.7491 157.645 63.7896 158H63.8321C85.8712 157.646 99.6823 155.831 105.265 152.554C114.517 148.635 121.011 141.938 124.746 132.462C126.434 127.601 127.262 121.523 127.231 114.228L127.184 94.9623L127.605 70.5373Z" fill="white"/>
</mask>
<g mask="url(#mask0_19_100)">
<path d="M143.999 117.601C137.209 124.905 132.728 134.656 124.444 140.569C108.579 151.86 100.722 137.489 89.5909 128.386C62.443 106.183 53.5162 129.34 34.6537 146.227C28.9192 151.356 14.5721 161.188 7.35721 163.125C-1.3126 165.453 -9.07126 164.852 -16.4115 159.4V101.253C-13.9393 103.647 -12.2614 106.833 -9.9187 109.433C-6.27619 113.468 -0.206043 118.565 5.56675 118.262C13.7417 117.837 24.3782 102.286 30.7415 96.9758C42.268 87.3609 48.0408 101.54 58.877 103.016C76.189 105.37 82.1126 83.986 90.7357 73.7891C96.4469 67.0435 103.851 78.9672 107.597 82.1233C114.651 88.0702 122.715 88.0872 130.221 82.8306C135.718 78.982 137.933 71.731 143.991 68.5579L143.999 117.601Z" fill="#009B10"/>
<path d="M143.999 125.404V186.337C129.412 199.648 123.308 182.837 115.396 173.524C104.949 161.231 92.8043 162.012 83.166 174.69C77.6545 181.945 70.8771 197.566 62.6809 201.016C55.9672 203.84 52.5902 197.83 48.0025 194.149C27.9039 178.063 27.4006 206.778 13.3828 208.91C7.43155 209.819 2.14725 202.197 -2.12606 198.607C-5.78769 195.534 -11.4012 190.356 -16.4115 192.66V164.788C-9.03303 168.07 -1.59296 168.634 6.31437 167.286C19.4253 165.051 26.4406 159.625 35.9408 150.859C43.2577 144.11 57.7534 125.61 66.7376 124.083C87.5052 120.549 98.7449 153.576 117.276 149.01C123.843 147.391 133.036 138.959 137.305 133.753C139.554 131.007 141.104 127.573 143.999 125.404Z" fill="#03954C"/>
<path d="M143.999 64.8431C137.884 66.8396 134.476 73.479 129.714 77.4847C125.99 80.6174 120.989 82.4822 116.131 81.3948C105.185 78.9438 99.4373 59.0576 86.9976 72.262C80.492 79.171 75.2948 92.7768 66.6484 97.6024C56.4047 103.328 47.5947 87.2929 36.2191 89.0812C28.316 90.3237 17.8005 104.945 11.4521 110.361C6.03826 114.974 3.51293 114.443 -1.88181 110.318C-7.24257 106.219 -11.5945 100.584 -16.4009 95.8756V60.385C-13.4932 63.1312 -9.40471 65.9922 -5.35653 66.6102C8.13031 68.6662 16.9594 44.976 27.3007 39.2733C31.3192 37.056 36.3656 40.7027 39.475 43.3088C47.2422 49.8016 53.6118 65.7479 65.7861 59.2084C74.4049 54.5761 77.7394 42.9328 83.9752 37.4701C94.6925 28.0761 104.866 43.2366 116.025 44.3665C125.296 45.3074 128.628 40.4861 135.731 36.3084C138.409 34.7345 141.21 33.4644 144.014 32.1519L143.999 64.8431Z" fill="#44BA00"/>
<path d="M143.999 23.9727V25.4594C139.579 29.2251 135.433 32.8039 130.455 35.8666C123.246 40.3034 119.806 42.3742 111.227 39.114C105.401 36.8988 100.487 31.6081 94.0511 31.0432C77.6205 29.5755 76.4672 44.6617 66.2278 53.3442C61.1156 57.6728 57.2097 58.1634 52.673 52.7708C48.1809 47.4334 45.6131 42.6227 39.4134 38.5406C23.312 27.9422 18.4398 43.1155 9.21988 53.1488C6.02127 56.6299 -0.692419 64.0573 -5.91937 61.961L-16.4115 53.5099V23.9727H143.999Z" fill="#85DF00"/>
</g>
<mask id="mask1_19_100" style="mask-type:luminance" maskUnits="userSpaceOnUse" x="13" y="0" width="102" height="21">
<path d="M35.9727 19.0197C45.4751 19.7277 54.7495 20.0958 63.796 20.1241H63.8087H64.6349C74.0877 20.1241 83.2871 19.744 92.233 18.9836C100.729 18.3153 108.092 16.8087 114.322 14.4639C114.543 12.0724 114.472 10.1297 114.109 8.63589C113.933 7.84195 113.622 7.08408 113.19 6.39516L113.109 6.2656L112.988 6.09144C112.958 6.04896 112.931 6.00436 112.899 5.96401C112.094 4.8794 110.951 4.00293 109.469 3.3346C108.598 2.85318 107.297 2.4284 105.567 2.06026H105.552L105.117 1.95831C104.692 1.87052 104.244 1.78698 103.772 1.70769L103.696 1.69919L103.311 1.6376L103.19 1.61636L102.836 1.56326L102.693 1.5399L102.336 1.4868L102.192 1.46556L101.793 1.41034L101.682 1.39547L101.153 1.32751H101.109L100.622 1.26804L100.44 1.2468L100.075 1.20432L99.8621 1.17883L99.5159 1.1406L99.2823 1.11724L98.934 1.08113L98.694 1.05565L98.3138 1.01954L98.1014 0.9983L97.5598 0.94945H97.4961C94.1219 0.683253 89.6808 0.470862 84.1728 0.312276L83.6545 0.299533C83.0981 0.282541 82.531 0.269798 81.9554 0.254931C80.32 0.208204 78.6017 0.169266 76.8007 0.138115C72.87 0.072982 68.5372 0.0269639 63.8023 6.10352e-05H63.7875C50.4776 0.0708581 40.3536 0.308028 33.4155 0.711572C32.2176 0.779537 31.1111 0.853874 30.1022 0.934583H30.0194L29.5054 0.989804L29.2802 1.01104L28.9234 1.04503L28.6686 1.07051L28.35 1.1045L28.0972 1.12998L27.7893 1.16397L27.5408 1.19158L27.2392 1.22768L27.0034 1.25529L26.6997 1.2914L26.4746 1.31901L26.1538 1.36149L25.9669 1.38485L25.4784 1.45069L25.3595 1.46981L24.9942 1.52078L24.8137 1.54839L24.5248 1.593L24.3315 1.62273L24.0682 1.66733L23.8791 1.69707L23.62 1.74167L23.4395 1.77353L23.1867 1.82025L23.0147 1.85211L22.762 1.91158L22.6069 1.94132L22.3244 1.99866L22.2119 2.02203L21.8338 2.10486C20.2055 2.46309 18.9743 2.87301 18.1403 3.3346C16.6961 3.98452 15.5732 4.83409 14.7718 5.8833L14.706 5.97888C14.6401 6.06596 14.5764 6.15304 14.5148 6.24436C14.4829 6.29109 14.4553 6.33994 14.4235 6.38879C14.3916 6.43764 14.3236 6.54808 14.2769 6.62879C14.2684 6.64105 14.2606 6.65382 14.2536 6.66702C13.9047 7.28439 13.6492 7.95002 13.4953 8.64226C13.1243 10.1233 13.0507 12.0568 13.2744 14.4427L13.404 14.4936C17.9874 16.5637 25.5103 18.0724 35.9727 19.0197Z" fill="white"/>
</mask>
<g mask="url(#mask1_19_100)">
<path d="M118.578 16.4179C111.782 23.7241 107.306 33.4772 99.0147 39.3859C83.1575 50.6808 75.2991 36.3062 64.1697 27.2031C37.0219 4.99973 28.0951 28.1568 9.23262 45.044C3.50018 50.1669 -10.849 59.9984 -18.0703 61.9355C-26.7401 64.2718 -34.4966 63.6686 -41.839 58.2165V0.0701253C-39.3668 2.47015 -37.6867 5.65601 -35.3462 8.24931C-31.7037 12.2847 -25.6335 17.3821 -19.8586 17.0784C-11.6837 16.6536 -1.04924 1.10235 5.31613 -4.20744C16.8468 -13.8224 22.6196 0.358978 33.4558 1.83297C50.7657 4.18627 56.6915 -17.2037 65.323 -27.3984C71.0342 -34.144 78.4361 -22.2203 82.1827 -19.0642C89.2362 -13.1173 97.3028 -13.1003 104.807 -18.3569C110.305 -22.2055 112.521 -29.4565 118.578 -32.6296V16.4179Z" fill="#03954C"/>
<path d="M118.578 24.2126V85.1541C103.989 98.454 97.8848 81.6539 89.9754 72.3469C79.5279 60.0537 67.3812 60.8353 57.7429 73.5129C52.2313 80.7618 45.456 96.3832 37.2599 99.8239C30.5462 102.649 27.167 96.6381 22.5794 92.9573C2.48292 76.8708 1.97743 105.586 -12.0404 107.719C-18.0001 108.628 -23.2844 101.003 -27.5556 97.4154C-31.2172 94.3421 -36.8328 89.164 -41.8431 91.4684V63.6048C-34.4647 66.8863 -27.0225 67.4534 -19.1173 66.1026C-6.00424 63.8682 1.00892 58.4416 10.5113 49.6762C17.8261 42.9264 32.3239 24.4271 41.308 22.9C62.0693 19.3659 73.3048 52.3927 91.8423 47.8263C98.4094 46.2079 107.602 37.7759 111.871 32.5702C114.133 29.824 115.681 26.3896 118.578 24.2126Z" fill="#4BF273"/>
<path d="M118.578 -36.3401C112.463 -34.3436 109.054 -27.7043 104.29 -23.6986C100.567 -20.5658 95.5591 -18.6904 90.7102 -19.7885C79.7614 -22.2394 74.0141 -42.1256 61.5743 -28.9213C55.0709 -22.0122 49.8737 -8.40641 41.2273 -3.58088C30.9921 2.14519 22.1715 -13.8903 10.798 -12.1063C2.89488 -10.8595 -7.62061 3.76149 -13.9796 9.17959C-19.3935 13.7906 -21.9188 13.2596 -27.3135 9.13499C-32.6764 5.03584 -37.0283 -0.5989 -41.8347 -5.30761V-40.7982C-38.925 -38.052 -34.8364 -35.1911 -30.7904 -34.573C-17.3056 -32.5171 -8.47654 -56.2072 1.86266 -61.9099C5.88111 -64.1273 10.9275 -60.4805 14.0391 -57.8745C21.8041 -51.3817 28.1737 -35.4353 40.348 -41.9748C48.9689 -46.6071 52.3013 -58.2504 58.5372 -63.7131C69.2565 -73.105 79.428 -57.9467 90.587 -56.8168C99.86 -55.8759 103.19 -60.6971 110.295 -64.8728C112.971 -66.4487 115.774 -67.7188 118.578 -69.0314V-36.3401Z" fill="#4BF273"/>
</g>
<path d="M97.666 54.1152V48.8054H31.6591V133.363H36.9688H58.9853H59.1043H59.2211C69.1098 132.946 78.5016 128.914 85.6149 122.032C92.7279 115.133 97.0217 105.836 97.6618 95.9478L97.6745 95.7736V95.5973L97.666 54.1152Z" fill="white"/>
<path d="M58.9153 95.5251H48.4635V54.1088H36.9689V107.151C38.1328 107.139 39.2967 107.133 40.4606 107.134C43.7718 107.134 47.0872 107.173 50.3984 107.173C53.5184 107.173 56.6384 107.139 59.7436 107.007C65.7373 105.975 69.9044 100.606 70.4099 94.6883V88.992H58.9153V95.5251Z" fill="#43BB00"/>
<path d="M92.3562 54.1152H58.9152V73.6998H70.412V65.7415H80.8616V94.2912C80.2988 105.926 71.304 115.484 59.6352 116.433H36.9646V128.059H58.9811C76.8135 127.269 91.1817 113.432 92.3732 95.5974L92.3562 54.1152Z" fill="#85DF00"/>
<path d="M153.541 5.09999H174.115V77.236H218.692V94H153.541V5.09999Z" fill="#85DF00"/>
<path d="M260.806 95.016C253.61 95.016 247.133 93.5343 241.375 90.571C235.703 87.523 231.258 83.332 228.04 77.998C224.823 72.664 223.214 66.6103 223.214 59.837C223.214 53.0637 224.823 47.01 228.04 41.676C231.258 36.342 235.703 32.1933 241.375 29.23C247.133 26.182 253.61 24.658 260.806 24.658C268.003 24.658 274.438 26.182 280.11 29.23C285.783 32.1933 290.228 36.342 293.445 41.676C296.663 47.01 298.271 53.0637 298.271 59.837C298.271 66.6103 296.663 72.664 293.445 77.998C290.228 83.332 285.783 87.523 280.11 90.571C274.438 93.5343 268.003 95.016 260.806 95.016ZM260.806 78.76C265.886 78.76 270.035 77.0667 273.252 73.68C276.554 70.2087 278.205 65.5943 278.205 59.837C278.205 54.0797 276.554 49.5077 273.252 46.121C270.035 42.6497 265.886 40.914 260.806 40.914C255.726 40.914 251.535 42.6497 248.233 46.121C244.931 49.5077 243.28 54.0797 243.28 59.837C243.28 65.5943 244.931 70.2087 248.233 73.68C251.535 77.0667 255.726 78.76 260.806 78.76Z" fill="#85DF00"/>
<path d="M380.856 25.674V94H361.933V86.126C357.022 92.0527 349.91 95.016 340.597 95.016C334.162 95.016 328.32 93.5767 323.071 90.698C317.906 87.8193 313.842 83.713 310.879 78.379C307.916 73.045 306.434 66.8643 306.434 59.837C306.434 52.8097 307.916 46.629 310.879 41.295C313.842 35.961 317.906 31.8547 323.071 28.976C328.32 26.0973 334.162 24.658 340.597 24.658C349.318 24.658 356.133 27.4097 361.044 32.913V25.674H380.856ZM344.026 78.76C349.021 78.76 353.17 77.0667 356.472 73.68C359.774 70.2087 361.425 65.5943 361.425 59.837C361.425 54.0797 359.774 49.5077 356.472 46.121C353.17 42.6497 349.021 40.914 344.026 40.914C338.946 40.914 334.755 42.6497 331.453 46.121C328.151 49.5077 326.5 54.0797 326.5 59.837C326.5 65.5943 328.151 70.2087 331.453 73.68C334.755 77.0667 338.946 78.76 344.026 78.76Z" fill="#85DF00"/>
<path d="M440.728 24.658C449.194 24.658 456.01 27.198 461.175 32.278C466.424 37.358 469.049 44.8933 469.049 54.884V94H449.237V57.932C449.237 52.5133 448.051 48.4917 445.681 45.867C443.31 43.1577 439.881 41.803 435.394 41.803C430.398 41.803 426.419 43.3693 423.456 46.502C420.492 49.55 419.011 54.122 419.011 60.218V94H399.199V25.674H418.122V33.675C420.746 30.7963 424.006 28.595 427.901 27.071C431.795 25.4623 436.071 24.658 440.728 24.658Z" fill="#85DF00"/>
<path d="M539.317 76.0786C539.317 79.3032 539.028 82.6105 538.449 86.0005C537.911 89.3491 537.064 92.5944 535.906 95.7363C534.749 98.9196 533.281 101.896 531.503 104.666C529.726 107.477 527.617 109.916 525.178 111.983C522.739 114.092 519.949 115.745 516.807 116.944C513.706 118.143 510.254 118.743 506.451 118.743C502.771 118.743 499.195 118.205 495.723 117.13C492.291 116.097 489.253 114.526 486.607 112.417C483.961 110.35 481.832 107.787 480.22 104.728C478.649 101.669 477.863 98.1341 477.863 94.124C477.863 91.7262 478.132 89.3698 478.669 87.0547C479.248 84.6982 480.034 82.4451 481.026 80.2954C482.059 78.1457 483.3 76.12 484.747 74.2183C486.194 72.3166 487.826 70.5802 489.646 69.0093L490.824 69.6294C489.377 72.4406 488.261 75.3551 487.475 78.373C486.731 81.3496 486.359 84.4089 486.359 87.5508C486.359 90.8581 486.814 94.1034 487.723 97.2866C488.633 100.511 489.997 103.384 491.816 105.906C493.676 108.469 495.991 110.536 498.761 112.107C501.531 113.678 504.776 114.464 508.497 114.464C511.556 114.464 514.181 113.968 516.373 112.976C518.605 112.025 520.486 110.702 522.016 109.007C523.587 107.353 524.847 105.41 525.798 103.178C526.791 100.987 527.535 98.6302 528.031 96.1084C528.568 93.6279 528.92 91.0854 529.085 88.481C529.292 85.8765 529.395 83.3547 529.395 80.9155C529.395 75.7892 529.106 70.5389 528.527 65.1646C527.948 59.7902 527.163 54.3745 526.17 48.9175C525.178 43.4604 524.021 38.0448 522.698 32.6704C521.375 27.2961 519.969 22.0457 518.481 16.9194C515.05 17.9943 511.804 19.0898 508.745 20.2061C505.686 21.3223 503.019 22.3765 500.746 23.3687C500.415 23.4927 500.105 23.596 499.815 23.6787C499.567 23.7201 499.278 23.7407 498.947 23.7407C498.286 23.7407 497.686 23.596 497.149 23.3066C496.611 22.9759 496.157 22.5832 495.785 22.1284C495.413 21.6323 495.123 21.0949 494.917 20.5161C494.71 19.896 494.606 19.2965 494.606 18.7178C494.606 17.8083 494.772 17.0228 495.103 16.3613C495.433 15.6585 495.867 15.0384 496.405 14.501C496.984 13.9635 497.624 13.5088 498.327 13.1367C499.03 12.7646 499.753 12.4546 500.498 12.2065C502.523 11.5037 504.9 10.925 507.629 10.4702C510.399 9.97412 513.231 9.60205 516.125 9.354C515.918 8.69255 515.711 8.05176 515.504 7.43164C515.339 6.81152 515.153 6.17074 514.946 5.50928L516.062 4.82715C516.559 5.52995 517.055 6.23275 517.551 6.93555C518.047 7.63835 518.543 8.36182 519.039 9.10596C521.189 8.94059 523.256 8.83724 525.24 8.7959C527.225 8.71322 529.002 8.67188 530.573 8.67188C531.607 8.67188 532.785 8.69255 534.108 8.73389C535.431 8.73389 536.774 8.7959 538.139 8.91992C539.503 9.04395 540.826 9.22998 542.107 9.47803C543.389 9.68473 544.505 9.99479 545.456 10.4082L545.022 11.4624C542.128 11.5451 538.759 11.9585 534.914 12.7026C531.069 13.4468 527.101 14.3976 523.008 15.5552C525.612 20.1027 527.907 24.8569 529.891 29.8179C531.917 34.7788 533.632 39.8431 535.038 45.0107C536.444 50.137 537.498 55.3254 538.201 60.5757C538.945 65.7847 539.317 70.9523 539.317 76.0786Z" fill="#03954C"/>
<path d="M577.206 61.5059C577.206 61.9606 577.041 62.374 576.71 62.7461C576.379 63.0768 575.986 63.2422 575.532 63.2422C575.16 63.2422 574.767 63.1388 574.354 62.9321C573.94 62.6841 573.465 62.4154 572.927 62.126C572.431 61.8366 571.832 61.5885 571.129 61.3818C570.467 61.1338 569.703 61.0098 568.834 61.0098C566.809 61.0098 564.99 61.6506 563.377 62.9321C561.806 64.1724 560.463 65.7227 559.347 67.583C558.272 69.4434 557.445 71.4277 556.866 73.5361C556.287 75.6445 555.998 77.5462 555.998 79.2412C555.998 80.4401 556.101 81.6183 556.308 82.7759C556.515 83.8921 556.866 84.9256 557.362 85.8765C557.9 86.786 558.623 87.5301 559.533 88.1089C560.442 88.6463 561.6 88.915 563.005 88.915C564.494 88.915 565.92 88.6463 567.284 88.1089C568.648 87.5301 569.93 86.786 571.129 85.8765C571.17 84.5535 571.377 83.1686 571.749 81.7217C572.162 80.2334 572.679 78.7865 573.299 77.3809C573.919 75.9339 574.622 74.5697 575.408 73.2881C576.235 72.0065 577.082 70.8696 577.95 69.8774L578.756 70.3735C578.302 71.7791 577.971 73.2261 577.764 74.7144C577.557 76.2026 577.454 77.6702 577.454 79.1172C577.454 80.6055 577.578 82.0111 577.826 83.334C578.074 84.6569 578.508 85.8145 579.128 86.8066C579.749 87.7575 580.596 88.5223 581.671 89.1011C582.746 89.6385 584.131 89.9072 585.826 89.9072C587.893 89.9072 589.794 89.4318 591.531 88.481C593.267 87.5301 594.797 86.3312 596.12 84.8843L596.616 85.1323C595.872 86.5793 594.9 87.9642 593.701 89.2871C592.502 90.61 591.159 91.8089 589.67 92.8838C588.223 93.9173 586.673 94.7441 585.02 95.3643C583.366 95.9844 581.733 96.2944 580.121 96.2944C577.847 96.2944 575.986 95.633 574.54 94.3101C573.093 93.0285 572.1 91.3955 571.563 89.4111C569.827 91.1475 567.884 92.6151 565.734 93.814C563.625 94.9715 561.393 95.5503 559.037 95.5503C557.3 95.5503 555.75 95.2196 554.386 94.5581C553.063 93.938 551.947 93.0905 551.037 92.0156C550.128 90.9408 549.425 89.6799 548.929 88.2329C548.474 86.7446 548.247 85.1943 548.247 83.582C548.247 81.7217 548.536 79.82 549.115 77.877C549.735 75.8926 550.562 73.9495 551.595 72.0479C552.67 70.1462 553.931 68.3478 555.378 66.6528C556.825 64.9578 558.396 63.4696 560.091 62.188C561.827 60.9064 563.646 59.8936 565.548 59.1494C567.45 58.4053 569.393 58.0332 571.377 58.0332C571.832 58.0332 572.39 58.0952 573.051 58.2192C573.713 58.3019 574.354 58.4673 574.974 58.7153C575.594 58.9634 576.111 59.3148 576.524 59.7695C576.979 60.2243 577.206 60.8031 577.206 61.5059Z" fill="#03954C"/>
<path d="M641.326 85.1323C640.582 86.786 639.631 88.2743 638.474 89.5972C637.357 90.9201 636.138 92.057 634.815 93.0078C633.492 93.9173 632.128 94.6201 630.722 95.1162C629.317 95.6536 627.973 95.9224 626.691 95.9224C624.294 95.9224 622.268 95.509 620.614 94.6821C618.961 93.8553 617.617 92.7391 616.583 91.3335C615.55 89.9279 614.806 88.2743 614.351 86.3726C613.896 84.4709 613.669 82.4451 613.669 80.2954C613.669 78.6418 613.793 76.9261 614.041 75.1484C614.289 73.3708 614.64 71.6551 615.095 70.0015C615.178 69.7534 615.261 69.464 615.343 69.1333C615.426 68.7612 615.467 68.4512 615.467 68.2031C615.467 67.9964 615.343 67.8311 615.095 67.707C614.392 67.459 613.648 67.2316 612.863 67.0249C612.077 66.7769 611.292 66.5081 610.506 66.2188C609.762 65.9294 609.039 65.5986 608.336 65.2266C607.674 64.8545 607.096 64.3791 606.6 63.8003C606.558 66.2808 606.145 68.8026 605.359 71.3657C604.574 73.8875 603.52 76.3267 602.197 78.6831C600.915 80.9982 599.406 83.1686 597.67 85.1943C595.934 87.2201 594.094 88.9771 592.151 90.4653L591.531 89.8452C592.73 88.5223 593.825 86.9513 594.817 85.1323C595.81 83.3133 596.657 81.4116 597.36 79.4272C598.063 77.4429 598.6 75.4378 598.972 73.4121C599.386 71.3864 599.592 69.4847 599.592 67.707C599.592 66.7975 599.51 65.95 599.344 65.1646C599.179 64.3377 598.993 63.5522 598.786 62.8081C598.621 62.064 598.455 61.3612 598.29 60.6997C598.125 59.9969 598.042 59.2941 598.042 58.5913C598.042 57.4338 598.414 56.5243 599.158 55.8628C599.902 55.2013 600.853 54.8706 602.011 54.8706C602.631 54.8706 603.106 55.0566 603.437 55.4287C603.768 55.7594 604.057 56.1729 604.305 56.6689C604.553 57.165 604.843 57.6818 605.173 58.2192C605.504 58.7567 605.979 59.2114 606.6 59.5835C607.385 60.0382 608.377 60.369 609.576 60.5757C610.775 60.7824 612.036 60.9684 613.359 61.1338C614.682 61.2992 616.005 61.4645 617.328 61.6299C618.651 61.7952 619.829 62.0846 620.862 62.498C621.937 62.8701 622.805 63.4076 623.467 64.1104C624.128 64.7718 624.459 65.6813 624.459 66.8389C624.459 67.4176 624.397 67.9964 624.273 68.5752C624.19 69.1126 624.046 69.6294 623.839 70.1255C623.343 71.8618 622.909 73.6395 622.537 75.4585C622.206 77.2362 622.041 79.0138 622.041 80.7915C622.041 82.3211 622.144 83.7267 622.351 85.0083C622.599 86.2485 623.033 87.3234 623.653 88.2329C624.273 89.1424 625.1 89.8452 626.133 90.3413C627.167 90.8374 628.49 91.0854 630.102 91.0854C632.417 91.0854 634.443 90.5273 636.179 89.4111C637.916 88.2536 639.445 86.7446 640.768 84.8843L641.326 85.1323Z" fill="#03954C"/>
<path d="M158.56 158V130H169.04C171.413 130 173.453 130.387 175.16 131.16C176.867 131.907 178.173 133 179.08 134.44C180.013 135.853 180.48 137.573 180.48 139.6C180.48 141.573 180.013 143.28 179.08 144.72C178.173 146.133 176.867 147.227 175.16 148C173.453 148.773 171.413 149.16 169.04 149.16H160.2L161.52 147.76V158H158.56ZM161.52 148L160.2 146.56H168.96C171.76 146.56 173.88 145.96 175.32 144.76C176.787 143.533 177.52 141.813 177.52 139.6C177.52 137.36 176.787 135.627 175.32 134.4C173.88 133.173 171.76 132.56 168.96 132.56H160.2L161.52 131.16V148ZM185.773 158V137H188.493V142.72L188.213 141.72C188.799 140.12 189.786 138.907 191.173 138.08C192.559 137.227 194.279 136.8 196.333 136.8V139.56C196.226 139.56 196.119 139.56 196.013 139.56C195.906 139.533 195.799 139.52 195.693 139.52C193.479 139.52 191.746 140.2 190.493 141.56C189.239 142.893 188.613 144.8 188.613 147.28V158H185.773ZM209.879 158.2C207.853 158.2 206.026 157.747 204.399 156.84C202.799 155.907 201.533 154.64 200.599 153.04C199.666 151.413 199.199 149.56 199.199 147.48C199.199 145.373 199.666 143.52 200.599 141.92C201.533 140.32 202.799 139.067 204.399 138.16C205.999 137.253 207.826 136.8 209.879 136.8C211.959 136.8 213.799 137.253 215.399 138.16C217.026 139.067 218.293 140.32 219.199 141.92C220.133 143.52 220.599 145.373 220.599 147.48C220.599 149.56 220.133 151.413 219.199 153.04C218.293 154.64 217.026 155.907 215.399 156.84C213.773 157.747 211.933 158.2 209.879 158.2ZM209.879 155.68C211.399 155.68 212.746 155.347 213.919 154.68C215.093 153.987 216.013 153.027 216.679 151.8C217.373 150.547 217.719 149.107 217.719 147.48C217.719 145.827 217.373 144.387 216.679 143.16C216.013 141.933 215.093 140.987 213.919 140.32C212.746 139.627 211.413 139.28 209.919 139.28C208.426 139.28 207.093 139.627 205.919 140.32C204.746 140.987 203.813 141.933 203.119 143.16C202.426 144.387 202.079 145.827 202.079 147.48C202.079 149.107 202.426 150.547 203.119 151.8C203.813 153.027 204.746 153.987 205.919 154.68C207.093 155.347 208.413 155.68 209.879 155.68ZM226.878 158V134.36C226.878 132.493 227.424 130.987 228.518 129.84C229.611 128.693 231.184 128.12 233.238 128.12C234.038 128.12 234.811 128.227 235.558 128.44C236.304 128.653 236.931 128.987 237.438 129.44L236.478 131.56C236.078 131.213 235.611 130.96 235.078 130.8C234.544 130.613 233.971 130.52 233.358 130.52C232.158 130.52 231.238 130.853 230.598 131.52C229.958 132.187 229.638 133.173 229.638 134.48V137.68L229.718 139V158H226.878ZM223.118 139.36V137H236.118V139.36H223.118ZM239.958 158V137H242.798V158H239.958ZM241.398 132.36C240.811 132.36 240.318 132.16 239.918 131.76C239.518 131.36 239.318 130.88 239.318 130.32C239.318 129.76 239.518 129.293 239.918 128.92C240.318 128.52 240.811 128.32 241.398 128.32C241.984 128.32 242.478 128.507 242.878 128.88C243.278 129.253 243.478 129.72 243.478 130.28C243.478 130.867 243.278 131.36 242.878 131.76C242.504 132.16 242.011 132.36 241.398 132.36ZM257.413 158.2C255.439 158.2 253.919 157.667 252.853 156.6C251.786 155.533 251.253 154.027 251.253 152.08V132.36H254.093V151.92C254.093 153.147 254.399 154.093 255.013 154.76C255.653 155.427 256.559 155.76 257.733 155.76C258.986 155.76 260.026 155.4 260.853 154.68L261.853 156.72C261.293 157.227 260.613 157.6 259.813 157.84C259.039 158.08 258.239 158.2 257.413 158.2ZM247.493 139.36V137H260.493V139.36H247.493ZM303.731 136.8C305.438 136.8 306.918 137.133 308.171 137.8C309.451 138.44 310.438 139.427 311.131 140.76C311.851 142.093 312.211 143.773 312.211 145.8V158H309.371V146.08C309.371 143.867 308.838 142.2 307.771 141.08C306.731 139.933 305.251 139.36 303.331 139.36C301.891 139.36 300.638 139.667 299.571 140.28C298.531 140.867 297.718 141.733 297.131 142.88C296.571 144 296.291 145.36 296.291 146.96V158H293.451V146.08C293.451 143.867 292.918 142.2 291.851 141.08C290.785 139.933 289.291 139.36 287.371 139.36C285.958 139.36 284.718 139.667 283.651 140.28C282.585 140.867 281.758 141.733 281.171 142.88C280.611 144 280.331 145.36 280.331 146.96V158H277.491V137H280.211V142.68L279.771 141.68C280.411 140.16 281.438 138.973 282.851 138.12C284.291 137.24 285.985 136.8 287.931 136.8C289.985 136.8 291.731 137.32 293.171 138.36C294.611 139.373 295.545 140.907 295.971 142.96L294.851 142.52C295.465 140.813 296.545 139.44 298.091 138.4C299.665 137.333 301.545 136.8 303.731 136.8ZM333.073 158V153.36L332.953 152.6V144.84C332.953 143.053 332.446 141.68 331.433 140.72C330.446 139.76 328.966 139.28 326.993 139.28C325.633 139.28 324.34 139.507 323.113 139.96C321.886 140.413 320.846 141.013 319.993 141.76L318.713 139.64C319.78 138.733 321.06 138.04 322.553 137.56C324.046 137.053 325.62 136.8 327.273 136.8C329.993 136.8 332.086 137.48 333.553 138.84C335.046 140.173 335.793 142.213 335.793 144.96V158H333.073ZM325.833 158.2C324.26 158.2 322.886 157.947 321.713 157.44C320.566 156.907 319.686 156.187 319.073 155.28C318.46 154.347 318.153 153.28 318.153 152.08C318.153 150.987 318.406 150 318.913 149.12C319.446 148.213 320.3 147.493 321.473 146.96C322.673 146.4 324.273 146.12 326.273 146.12H333.513V148.24H326.353C324.326 148.24 322.913 148.6 322.113 149.32C321.34 150.04 320.953 150.933 320.953 152C320.953 153.2 321.42 154.16 322.353 154.88C323.286 155.6 324.593 155.96 326.273 155.96C327.873 155.96 329.246 155.6 330.393 154.88C331.566 154.133 332.42 153.067 332.953 151.68L333.593 153.64C333.06 155.027 332.126 156.133 330.793 156.96C329.486 157.787 327.833 158.2 325.833 158.2ZM350.147 158.2C348.174 158.2 346.654 157.667 345.587 156.6C344.52 155.533 343.987 154.027 343.987 152.08V132.36H346.827V151.92C346.827 153.147 347.134 154.093 347.747 154.76C348.387 155.427 349.294 155.76 350.467 155.76C351.72 155.76 352.76 155.4 353.587 154.68L354.587 156.72C354.027 157.227 353.347 157.6 352.547 157.84C351.774 158.08 350.974 158.2 350.147 158.2ZM340.227 139.36V137H353.227V139.36H340.227ZM365.85 158.2C363.877 158.2 362.357 157.667 361.29 156.6C360.223 155.533 359.69 154.027 359.69 152.08V132.36H362.53V151.92C362.53 153.147 362.837 154.093 363.45 154.76C364.09 155.427 364.997 155.76 366.17 155.76C367.423 155.76 368.463 155.4 369.29 154.68L370.29 156.72C369.73 157.227 369.05 157.6 368.25 157.84C367.477 158.08 366.677 158.2 365.85 158.2ZM355.93 139.36V137H368.93V139.36H355.93ZM383.638 158.2C381.451 158.2 379.531 157.747 377.878 156.84C376.224 155.907 374.931 154.64 373.998 153.04C373.064 151.413 372.598 149.56 372.598 147.48C372.598 145.4 373.038 143.56 373.918 141.96C374.824 140.36 376.051 139.107 377.598 138.2C379.171 137.267 380.931 136.8 382.878 136.8C384.851 136.8 386.598 137.253 388.118 138.16C389.664 139.04 390.878 140.293 391.758 141.92C392.638 143.52 393.078 145.373 393.078 147.48C393.078 147.613 393.064 147.76 393.038 147.92C393.038 148.053 393.038 148.2 393.038 148.36H374.758V146.24H391.518L390.398 147.08C390.398 145.56 390.064 144.213 389.398 143.04C388.758 141.84 387.878 140.907 386.758 140.24C385.638 139.573 384.344 139.24 382.878 139.24C381.438 139.24 380.144 139.573 378.998 140.24C377.851 140.907 376.958 141.84 376.318 143.04C375.678 144.24 375.358 145.613 375.358 147.16V147.6C375.358 149.2 375.704 150.613 376.398 151.84C377.118 153.04 378.104 153.987 379.358 154.68C380.638 155.347 382.091 155.68 383.718 155.68C384.998 155.68 386.184 155.453 387.278 155C388.398 154.547 389.358 153.853 390.158 152.92L391.758 154.76C390.824 155.88 389.651 156.733 388.238 157.32C386.851 157.907 385.318 158.2 383.638 158.2ZM398.858 158V137H401.578V142.72L401.298 141.72C401.885 140.12 402.872 138.907 404.258 138.08C405.645 137.227 407.365 136.8 409.418 136.8V139.56C409.312 139.56 409.205 139.56 409.098 139.56C408.992 139.533 408.885 139.52 408.778 139.52C406.565 139.52 404.832 140.2 403.578 141.56C402.325 142.893 401.698 144.8 401.698 147.28V158H398.858ZM420.475 158.2C418.742 158.2 417.102 157.96 415.555 157.48C414.008 156.973 412.795 156.347 411.915 155.6L413.195 153.36C414.048 154 415.142 154.56 416.475 155.04C417.808 155.493 419.208 155.72 420.675 155.72C422.675 155.72 424.115 155.413 424.995 154.8C425.875 154.16 426.315 153.32 426.315 152.28C426.315 151.507 426.062 150.907 425.555 150.48C425.075 150.027 424.435 149.693 423.635 149.48C422.835 149.24 421.942 149.04 420.955 148.88C419.968 148.72 418.982 148.533 417.995 148.32C417.035 148.107 416.155 147.8 415.355 147.4C414.555 146.973 413.902 146.4 413.395 145.68C412.915 144.96 412.675 144 412.675 142.8C412.675 141.653 412.995 140.627 413.635 139.72C414.275 138.813 415.208 138.107 416.435 137.6C417.688 137.067 419.208 136.8 420.995 136.8C422.355 136.8 423.715 136.987 425.075 137.36C426.435 137.707 427.555 138.173 428.435 138.76L427.195 141.04C426.262 140.4 425.262 139.947 424.195 139.68C423.128 139.387 422.062 139.24 420.995 139.24C419.102 139.24 417.702 139.573 416.795 140.24C415.915 140.88 415.475 141.707 415.475 142.72C415.475 143.52 415.715 144.147 416.195 144.6C416.702 145.053 417.355 145.413 418.155 145.68C418.982 145.92 419.875 146.12 420.835 146.28C421.822 146.44 422.795 146.64 423.755 146.88C424.742 147.093 425.635 147.4 426.435 147.8C427.262 148.173 427.915 148.72 428.395 149.44C428.902 150.133 429.155 151.053 429.155 152.2C429.155 153.427 428.808 154.493 428.115 155.4C427.448 156.28 426.462 156.973 425.155 157.48C423.875 157.96 422.315 158.2 420.475 158.2ZM451.475 158.2C449.502 158.2 447.982 157.667 446.915 156.6C445.848 155.533 445.315 154.027 445.315 152.08V132.36H448.155V151.92C448.155 153.147 448.462 154.093 449.075 154.76C449.715 155.427 450.622 155.76 451.795 155.76C453.048 155.76 454.088 155.4 454.915 154.68L455.915 156.72C455.355 157.227 454.675 157.6 453.875 157.84C453.102 158.08 452.302 158.2 451.475 158.2ZM441.555 139.36V137H454.555V139.36H441.555ZM471.805 136.8C473.512 136.8 475.005 137.133 476.285 137.8C477.592 138.44 478.605 139.427 479.325 140.76C480.072 142.093 480.445 143.773 480.445 145.8V158H477.605V146.08C477.605 143.867 477.045 142.2 475.925 141.08C474.832 139.933 473.285 139.36 471.285 139.36C469.792 139.36 468.485 139.667 467.365 140.28C466.272 140.867 465.418 141.733 464.805 142.88C464.218 144 463.925 145.36 463.925 146.96V158H461.085V128.32H463.925V142.76L463.365 141.68C464.032 140.16 465.098 138.973 466.565 138.12C468.032 137.24 469.778 136.8 471.805 136.8ZM497.036 158.2C494.85 158.2 492.93 157.747 491.276 156.84C489.623 155.907 488.33 154.64 487.396 153.04C486.463 151.413 485.996 149.56 485.996 147.48C485.996 145.4 486.436 143.56 487.316 141.96C488.223 140.36 489.45 139.107 490.996 138.2C492.57 137.267 494.33 136.8 496.276 136.8C498.25 136.8 499.996 137.253 501.516 138.16C503.063 139.04 504.276 140.293 505.156 141.92C506.036 143.52 506.476 145.373 506.476 147.48C506.476 147.613 506.463 147.76 506.436 147.92C506.436 148.053 506.436 148.2 506.436 148.36H488.156V146.24H504.916L503.796 147.08C503.796 145.56 503.463 144.213 502.796 143.04C502.156 141.84 501.276 140.907 500.156 140.24C499.036 139.573 497.743 139.24 496.276 139.24C494.836 139.24 493.543 139.573 492.396 140.24C491.25 140.907 490.356 141.84 489.716 143.04C489.076 144.24 488.756 145.613 488.756 147.16V147.6C488.756 149.2 489.103 150.613 489.796 151.84C490.516 153.04 491.503 153.987 492.756 154.68C494.036 155.347 495.49 155.68 497.116 155.68C498.396 155.68 499.583 155.453 500.676 155C501.796 154.547 502.756 153.853 503.556 152.92L505.156 154.76C504.223 155.88 503.05 156.733 501.636 157.32C500.25 157.907 498.716 158.2 497.036 158.2ZM523.326 158V130H525.766L538.566 151.84H537.286L549.966 130H552.406V158H549.566V134.44H550.246L538.566 154.44H537.166L525.406 134.44H526.166V158H523.326ZM569.489 158.2C567.462 158.2 565.635 157.747 564.009 156.84C562.409 155.907 561.142 154.64 560.209 153.04C559.275 151.413 558.809 149.56 558.809 147.48C558.809 145.373 559.275 143.52 560.209 141.92C561.142 140.32 562.409 139.067 564.009 138.16C565.609 137.253 567.435 136.8 569.489 136.8C571.569 136.8 573.409 137.253 575.009 138.16C576.635 139.067 577.902 140.32 578.809 141.92C579.742 143.52 580.209 145.373 580.209 147.48C580.209 149.56 579.742 151.413 578.809 153.04C577.902 154.64 576.635 155.907 575.009 156.84C573.382 157.747 571.542 158.2 569.489 158.2ZM569.489 155.68C571.009 155.68 572.355 155.347 573.529 154.68C574.702 153.987 575.622 153.027 576.289 151.8C576.982 150.547 577.329 149.107 577.329 147.48C577.329 145.827 576.982 144.387 576.289 143.16C575.622 141.933 574.702 140.987 573.529 140.32C572.355 139.627 571.022 139.28 569.529 139.28C568.035 139.28 566.702 139.627 565.529 140.32C564.355 140.987 563.422 141.933 562.729 143.16C562.035 144.387 561.689 145.827 561.689 147.48C561.689 149.107 562.035 150.547 562.729 151.8C563.422 153.027 564.355 153.987 565.529 154.68C566.702 155.347 568.022 155.68 569.489 155.68ZM591.647 158.2C589.914 158.2 588.274 157.96 586.727 157.48C585.18 156.973 583.967 156.347 583.087 155.6L584.367 153.36C585.22 154 586.314 154.56 587.647 155.04C588.98 155.493 590.38 155.72 591.847 155.72C593.847 155.72 595.287 155.413 596.167 154.8C597.047 154.16 597.487 153.32 597.487 152.28C597.487 151.507 597.234 150.907 596.727 150.48C596.247 150.027 595.607 149.693 594.807 149.48C594.007 149.24 593.114 149.04 592.127 148.88C591.14 148.72 590.154 148.533 589.167 148.32C588.207 148.107 587.327 147.8 586.527 147.4C585.727 146.973 585.074 146.4 584.567 145.68C584.087 144.96 583.847 144 583.847 142.8C583.847 141.653 584.167 140.627 584.807 139.72C585.447 138.813 586.38 138.107 587.607 137.6C588.86 137.067 590.38 136.8 592.167 136.8C593.527 136.8 594.887 136.987 596.247 137.36C597.607 137.707 598.727 138.173 599.607 138.76L598.367 141.04C597.434 140.4 596.434 139.947 595.367 139.68C594.3 139.387 593.234 139.24 592.167 139.24C590.274 139.24 588.874 139.573 587.967 140.24C587.087 140.88 586.647 141.707 586.647 142.72C586.647 143.52 586.887 144.147 587.367 144.6C587.874 145.053 588.527 145.413 589.327 145.68C590.154 145.92 591.047 146.12 592.007 146.28C592.994 146.44 593.967 146.64 594.927 146.88C595.914 147.093 596.807 147.4 597.607 147.8C598.434 148.173 599.087 148.72 599.567 149.44C600.074 150.133 600.327 151.053 600.327 152.2C600.327 153.427 599.98 154.493 599.287 155.4C598.62 156.28 597.634 156.973 596.327 157.48C595.047 157.96 593.487 158.2 591.647 158.2ZM612.178 158.2C610.205 158.2 608.685 157.667 607.618 156.6C606.551 155.533 606.018 154.027 606.018 152.08V132.36H608.858V151.92C608.858 153.147 609.165 154.093 609.778 154.76C610.418 155.427 611.325 155.76 612.498 155.76C613.751 155.76 614.791 155.4 615.618 154.68L616.618 156.72C616.058 157.227 615.378 157.6 614.578 157.84C613.805 158.08 613.005 158.2 612.178 158.2ZM602.258 139.36V137H615.258V139.36H602.258ZM622.459 158.2C621.872 158.2 621.365 157.987 620.939 157.56C620.539 157.133 620.339 156.613 620.339 156C620.339 155.36 620.539 154.84 620.939 154.44C621.365 154.04 621.872 153.84 622.459 153.84C623.045 153.84 623.539 154.04 623.939 154.44C624.365 154.84 624.579 155.36 624.579 156C624.579 156.613 624.365 157.133 623.939 157.56C623.539 157.987 623.045 158.2 622.459 158.2ZM630.935 158.2C630.349 158.2 629.842 157.987 629.415 157.56C629.015 157.133 628.815 156.613 628.815 156C628.815 155.36 629.015 154.84 629.415 154.44C629.842 154.04 630.349 153.84 630.935 153.84C631.522 153.84 632.015 154.04 632.415 154.44C632.842 154.84 633.055 155.36 633.055 156C633.055 156.613 632.842 157.133 632.415 157.56C632.015 157.987 631.522 158.2 630.935 158.2ZM639.412 158.2C638.825 158.2 638.319 157.987 637.892 157.56C637.492 157.133 637.292 156.613 637.292 156C637.292 155.36 637.492 154.84 637.892 154.44C638.319 154.04 638.825 153.84 639.412 153.84C639.999 153.84 640.492 154.04 640.892 154.44C641.319 154.84 641.532 155.36 641.532 156C641.532 156.613 641.319 157.133 640.892 157.56C640.492 157.987 639.999 158.2 639.412 158.2Z" fill="white"/>
<path d="M154 113H467" stroke="#005329" stroke-width="2" stroke-linecap="round"/>
<path d="M546 113H639" stroke="#005329" stroke-width="2" stroke-linecap="round"/>
</svg>
